<svg xmlns="http://www.w3.org/2000/svg" width="26.977" height="114.564" viewBox="0 0 26.977 114.564">
  <g id="Group_16" data-name="Group 16" transform="translate(-595.805 -365.99)">
    <g id="g1720">
      <path id="path1722" d="M622.116,390.048v77.017a13.849,13.849,0,0,1-.252,2.588,13.319,13.319,0,0,1-.748,2.4c-.081.2-.16.387-.253.575a14.854,14.854,0,0,1-.935,1.613,13.623,13.623,0,0,1-10.633,5.646c-10.3,0-12.61-10.435-12.678-10.863a13.755,13.755,0,0,1-.145-1.96V390.048a12.852,12.852,0,0,1,8.165-11.956,13.77,13.77,0,0,1,1.948-.587v-3.829H604.5a3.51,3.51,0,0,1-2.469-5.991,3.423,3.423,0,0,1,2.469-1.028h9.58a3.513,3.513,0,0,1,3.509,3.509,3.551,3.551,0,0,1-1.028,2.482,3.475,3.475,0,0,1-2.481,1.028H612v3.829a13.812,13.812,0,0,1,1.948.587,12.911,12.911,0,0,1,4.416,2.882,12.773,12.773,0,0,1,3.749,9.074" fill="#172238"/>
    </g>
    <g id="g1724">
      <path id="path1726" d="M622.116,390.048v77.017a13.849,13.849,0,0,1-.252,2.588,13.319,13.319,0,0,1-.748,2.4c-.081.2-.16.387-.253.575a14.854,14.854,0,0,1-.935,1.613,13.623,13.623,0,0,1-10.633,5.646c-10.3,0-12.61-10.435-12.678-10.863a13.755,13.755,0,0,1-.145-1.96V390.048a12.852,12.852,0,0,1,8.165-11.956,13.77,13.77,0,0,1,1.948-.587v-3.829H604.5a3.51,3.51,0,0,1-2.469-5.991,3.423,3.423,0,0,1,2.469-1.028h9.58a3.513,3.513,0,0,1,3.509,3.509,3.551,3.551,0,0,1-1.028,2.482,3.475,3.475,0,0,1-2.481,1.028H612v3.829a13.812,13.812,0,0,1,1.948.587,12.911,12.911,0,0,1,4.416,2.882A12.773,12.773,0,0,1,622.116,390.048Z" fill="none" stroke="#5adda4" strokeMiterlimit="13.333" strokeWidth="1.333"/>
    </g>
    <path id="path1736" d="M597.017,469.914V405.667h24.6v64.247a9.515,9.515,0,0,1-9.514,9.514h-5.576a9.515,9.515,0,0,1-9.515-9.514" fill="#5adda4"/>
    <g id="text1746" style="isolation: isolate">
      <text id="_6" data-name="6" transform="translate(614.296 466.743) rotate(-90)" fill="#fff" font-size="16.012" font-family="OpenSansCondensed-Bold, Open Sans" font-weight="700" style="isolation: isolate"><tspan x="0" y="0">6</tspan></text>
      <text id="_0" data-name="0" transform="translate(614.296 457.601) rotate(-90)" fill="#fff" font-size="16.012" font-family="OpenSansCondensed-Bold, Open Sans" font-weight="700" style="isolation: isolate"><tspan x="0" y="0">0</tspan></text>
      <text id="_" data-name="%" transform="translate(614.296 448.456) rotate(-90)" fill="#fff" font-size="16.012" font-family="OpenSansCondensed-Bold, Open Sans" font-weight="700" style="isolation: isolate"><tspan x="0" y="0">%</tspan></text>
    </g>
    <g id="g1756">
      <path id="path1758" d="M617.505,369.387a3.522,3.522,0,0,1-.94,3.26,3.471,3.471,0,0,1-2.481,1.028H612v3.83c.666.146-.582.554-.582.554l-2.052-.18a.965.965,0,0,0-.152,0l-1.968.162s-1.33-.39-.664-.536v-3.83h-1.846a3.665,3.665,0,0,1-3.726-3.706,3.5,3.5,0,0,1,1.022-2.284,3.419,3.419,0,0,1,2.469-1.028h9.376a3.662,3.662,0,0,1,3.625,2.73" fill="#5adda4"/>
    </g>
  </g>
</svg>
