<svg xmlns="http://www.w3.org/2000/svg" width="39.633" height="31.51" viewBox="0 0 39.633 31.51">
  <g id="Group_38" data-name="Group 38" transform="translate(-240.942 -24)">
    <path id="path2862" d="M-315.219,234.072l-5.372-6.972a1.713,1.713,0,0,0-1.356-.667h-10.031a1.713,1.713,0,0,1-1.713-1.712,1.712,1.712,0,0,1,1.713-1.71h11.715a1.711,1.711,0,0,1,1.355.666l5.044,6.543,5.022-6.54a1.709,1.709,0,0,1,1.358-.669h11.716a1.709,1.709,0,0,1,1.71,1.71,1.71,1.71,0,0,1-1.71,1.712H-305.8a1.713,1.713,0,0,0-1.356.668l-5.353,6.97a1.712,1.712,0,0,1-2.712,0" transform="translate(574.633 -179.229)" fill="#fff"/>
    <path id="path2866" d="M-313.874,203.229h0a1.778,1.778,0,0,1,1.777,1.777v16.6a1.777,1.777,0,0,1-1.777,1.776,1.776,1.776,0,0,1-1.776-1.776v-16.6a1.777,1.777,0,0,1,1.776-1.777" transform="translate(574.633 -179.229)" fill="#fff"/>
  </g>
</svg>
