<svg xmlns="http://www.w3.org/2000/svg" xmlns:xlink="http://www.w3.org/1999/xlink" width="122.679" height="172.413" viewBox="0 0 122.679 172.413">
  <defs>
    <clipPath id="clip-path">
      <rect id="Rectangle_1" data-name="Rectangle 1" width="89.847" height="29.32" transform="translate(282.641 461.017)" fill="none"/>
    </clipPath>
    <clipPath id="clip-path-2">
      <rect id="Rectangle_2" data-name="Rectangle 2" width="94.525" height="42.637" transform="translate(281.424 412.832)" fill="none"/>
    </clipPath>
    <clipPath id="clip-path-3">
      <rect id="Rectangle_3" data-name="Rectangle 3" width="47.515" height="28.347" transform="translate(304.327 516.348)" fill="none"/>
    </clipPath>
    <clipPath id="clip-path-4">
      <rect id="Rectangle_4" data-name="Rectangle 4" width="28.209" height="23.273" transform="translate(348.157 492.013)" fill="none"/>
    </clipPath>
    <clipPath id="clip-path-5">
      <rect id="Rectangle_5" data-name="Rectangle 5" width="26.94" height="23.228" transform="translate(280.759 492.056)" fill="none"/>
    </clipPath>
    <clipPath id="clip-path-6">
      <rect id="Rectangle_6" data-name="Rectangle 6" width="20.183" height="26.979" transform="translate(317.787 483.572)" fill="none"/>
    </clipPath>
    <clipPath id="clip-path-7">
      <rect id="Rectangle_7" data-name="Rectangle 7" width="106.571" height="53.263" transform="translate(276.103 519.612)" fill="none"/>
    </clipPath>
  </defs>
  <g id="Group_50" data-name="Group 50" transform="translate(-38.329 -438.332)">
    <path id="Path_1" data-name="Path 1" d="M7.773.246c12.354-1.924,3.48,35.1-.792,35.341C3.115,35.588-3.852,1.027,7.773.246Z" transform="matrix(0.985, 0.174, -0.174, 0.985, 147.174, 507.408)" fill="#27324e"/>
    <path id="Path_2" data-name="Path 2" d="M6.418,35.341C18.771,37.265,9.9.246,5.626,0,1.76,0-5.207,34.561,6.418,35.341Z" transform="matrix(-0.985, 0.174, -0.174, -0.985, 57.008, 542.69)" fill="#27324e"/>
    <g id="Group_31" data-name="Group 31" transform="translate(-228.464 37.87)">
      <g id="g174">
        <path id="path176" d="M380.884,489.581a121.37,121.37,0,0,1-4.031,19.446c-12.936,43.378-40.574,49.655-48.7,49.655-19.563,0-42.459-17.181-52.255-68.851a130.8,130.8,0,0,1-2.383-14.736v-.008c-4.192-41.285,14.187-73.5,53.282-73.95,43.652-.511,61.846,27.489,54.089,88.444" fill="#27324e"/>
      </g>
      <g id="g170">
        <path id="path172" d="M279.332,475.087c-2.123-4.657-11.04-5.222-11.621.826-.588,6.14,6.161,31.8,18.577,32.97" fill="none" stroke="#6698ff" strokeMiterlimit="13.333" strokeWidth="1.336"/>
      </g>
      <path id="path1948" d="M348,516H308V482.667h40Z" fill="#27324e"/>
      <g id="g166">
        <path id="path168" d="M370.863,509.051c12.368-1.6,18.226-27.475,17.424-33.6s-9.978-5.112-11.744-.175" fill="none" stroke="#6698ff" strokeMiterlimit="13.333" strokeWidth="1.336"/>
      </g>
      <g id="g182">
        <g id="g196">
          <g id="Group_18" data-name="Group 18">
            <g id="Group_17" data-name="Group 17" clip-path="url(#clip-path)">
              <g id="g194" opacity="0.3">
                <g id="g192">
                  <path id="path190" d="M351.962,461.017c-.044,0-.086,0-.132,0v0H301.964v.028c-10.776.444-19.322,6.825-19.322,14.632,0,8.1,9.188,14.66,20.524,14.66,8.55,0,15.878-3.735,18.963-9.043,0,0,.975-1.114,5.749-1.114S333,481.294,333,481.294c3.088,5.308,10.413,9.043,18.962,9.043,11.336,0,20.527-6.563,20.527-14.66s-9.191-14.66-20.527-14.66" fill="#6698ff"/>
                </g>
              </g>
            </g>
          </g>
        </g>
      </g>
      <g id="g216">
        <g id="Group_20" data-name="Group 20">
          <g id="Group_19" data-name="Group 19" clip-path="url(#clip-path-2)">
            <g id="g214" opacity="0.3">
              <g id="g208">
                <path id="path206" d="M356.427,412.832h-55.48a19.58,19.58,0,0,0-19.523,19.521v5.32a17.8,17.8,0,0,0,17.8,17.8h58.934a17.8,17.8,0,0,0,17.8-17.8v-5.32a19.58,19.58,0,0,0-19.523-19.521" fill="#6698ff"/>
              </g>
              <g id="g212">
                <path id="path210" d="M356.427,412.832h-55.48a19.58,19.58,0,0,0-19.523,19.521v5.32a17.8,17.8,0,0,0,17.8,17.8h58.934a17.8,17.8,0,0,0,17.8-17.8v-5.32a19.58,19.58,0,0,0-19.523-19.521" fill="#6698ff"/>
              </g>
            </g>
          </g>
        </g>
      </g>
      <g id="g218">
        <g id="g236">
          <g id="Group_22" data-name="Group 22">
            <g id="Group_21" data-name="Group 21" clip-path="url(#clip-path-3)">
              <g id="g234" opacity="0.3">
                <g id="g228">
                  <path id="path226" d="M340.165,516.348H316a11.677,11.677,0,0,0-11.676,11.676v5A11.677,11.677,0,0,0,316,544.7h24.162a11.675,11.675,0,0,0,11.676-11.676v-5a11.675,11.675,0,0,0-11.676-11.676" fill="#6698ff"/>
                </g>
                <g id="g232">
                  <path id="path230" d="M340.165,516.348H316a11.677,11.677,0,0,0-11.676,11.676v5A11.677,11.677,0,0,0,316,544.7h24.162a11.675,11.675,0,0,0,11.676-11.676v-5a11.675,11.675,0,0,0-11.676-11.676" fill="#6698ff"/>
                </g>
              </g>
            </g>
          </g>
        </g>
      </g>
      <g id="g238">
        <g id="g252">
          <g id="Group_24" data-name="Group 24">
            <g id="Group_23" data-name="Group 23" clip-path="url(#clip-path-4)">
              <g id="g250" opacity="0.3">
                <g id="g248">
                  <path id="path246" d="M348.294,501.258c-1.077,6.288,4.3,12.456,12.018,13.777s14.841-2.7,15.917-8.993-4.3-12.456-12.017-13.777-14.84,2.7-15.918,8.993" fill="#6698ff"/>
                </g>
              </g>
            </g>
          </g>
        </g>
      </g>
      <g id="g254">
        <g id="g268">
          <g id="Group_26" data-name="Group 26">
            <g id="Group_25" data-name="Group 25" clip-path="url(#clip-path-5)">
              <g id="g266" opacity="0.3">
                <g id="g264">
                  <path id="path262" d="M307.555,501.388c1.077,6.288-4.018,12.407-11.376,13.668s-14.2-2.815-15.276-9.1,4.016-12.408,11.376-13.668,14.2,2.815,15.276,9.1" fill="#6698ff"/>
                </g>
              </g>
            </g>
          </g>
        </g>
      </g>
      <g id="g270">
        <g id="g284">
          <g id="Group_28" data-name="Group 28">
            <g id="Group_27" data-name="Group 27" clip-path="url(#clip-path-6)">
              <g id="g282" opacity="0.3">
                <g id="g280">
                  <path id="path278" d="M320.809,508.186l3.877,2.2,5.261.164,5.582-2.246,2.44-1.639-.026-3.151-.437-.869c-4.688-3.695-3.889-17.4-3.889-17.4s0-1.669-5.7-1.669c-5.16,0-5.655,1.55-5.655,1.55.46,14.968-3.753,17.647-3.753,17.647l-.719.941.321,2.655,2.591,1.764" fill="#6698ff"/>
                </g>
              </g>
            </g>
          </g>
        </g>
      </g>
      <g id="g286">
        <path id="path288" d="M273.513,475.1a1.68,1.68,0,0,1,.107.23" fill="none" stroke="#6698ff" strokeMiterlimit="13.333" strokeWidth="1.336"/>
      </g>
      <g id="g290">
        <path id="path292" d="M307.3,477.363a2.863,2.863,0,1,1-2.862-2.862,2.862,2.862,0,0,1,2.862,2.862" fill="#6698ff"/>
      </g>
      <g id="g294">
        <path id="path296" d="M309.589,477.363a5.153,5.153,0,1,1-5.154-5.153A5.153,5.153,0,0,1,309.589,477.363Z" fill="none" stroke="#6698ff" strokeMiterlimit="13.333" strokeWidth="0.955"/>
      </g>
      <g id="g298">
        <path id="path300" d="M293.132,479.236c-.278-5.246,4.686-7.066,9.013-7.408s11.771,2.29,12.967,7.729a12.766,12.766,0,0,0-11-5.884c-3.511-.024-9.226-.191-10.984,5.563" fill="#6698ff"/>
      </g>
      <g id="g302">
        <path id="path304" d="M293.132,479.236c-.278-5.246,4.686-7.066,9.013-7.408s11.771,2.29,12.967,7.729a12.766,12.766,0,0,0-11-5.884C300.605,473.649,294.89,473.482,293.132,479.236Z" fill="none" stroke="#6698ff" stroke-linecap="round" stroke-linejoin="round" strokeWidth="0.381"/>
      </g>
      <g id="g306">
        <path id="path308" d="M293.526,479.143c2.052,2.846,9.384,3.356,10.6,3.374a20.306,20.306,0,0,0,10.652-2.959" fill="none" stroke="#6698ff" stroke-linecap="round" strokeMiterlimit="13.333" strokeWidth="1.145"/>
      </g>
      <g id="g310">
        <path id="path312" d="M317.388,468.9c-1.1.861-10.08-3.943-17.371-3.306-6.437.6-7.481,2.228-9.417,3.306.381-2.736,7.567-5.732,12.944-5.407,7.341.444,15.625,4.007,13.844,5.407" fill="#6698ff"/>
      </g>
      <g id="g314">
        <path id="path316" d="M317.388,468.9c-1.1.861-10.08-3.943-17.371-3.306-6.437.6-7.481,2.228-9.417,3.306.381-2.736,7.567-5.732,12.944-5.407C310.885,463.936,319.169,467.5,317.388,468.9Z" fill="none" stroke="#6698ff" stroke-linecap="round" stroke-linejoin="round" strokeWidth="0.764"/>
      </g>
      <g id="g318">
        <path id="path320" d="M318.428,507.275a9.776,9.776,0,0,1,2.984,1.277,11.909,11.909,0,0,0,6.844,2.117,11.742,11.742,0,0,0,6.655-1.973,18.122,18.122,0,0,1,2.737-1.425" fill="none" stroke="#6698ff" stroke-linecap="round" stroke-linejoin="round" strokeWidth="1.336"/>
      </g>
      <g id="g322">
        <path id="path324" d="M318.428,507.275a.861.861,0,0,1-.138-.09c-.952-.765-.348-3.742.138-4.229" fill="none" stroke="#6698ff" stroke-linecap="round" stroke-linejoin="round" strokeWidth="1.336"/>
      </g>
      <g id="g326">
        <path id="path328" d="M337.649,502.953c.509.51,1.145,3.738,0,4.318" fill="none" stroke="#6698ff" stroke-linecap="round" stroke-linejoin="round" strokeWidth="1.336"/>
      </g>
      <g id="g330">
        <path id="path332" d="M344.792,527.949H311.476a.683.683,0,0,1-.682-.681v-.193a.684.684,0,0,1,.682-.682h33.316a.684.684,0,0,1,.681.682v.193a.683.683,0,0,1-.681.681" fill="#6698ff"/>
      </g>
      <g id="g334">
        <path id="path336" d="M320.085,532.848c3.656,1.132,13.616.637,16.1-.446a21.608,21.608,0,0,1-8.049,1.655A24.823,24.823,0,0,1,320.085,532.848Z" fill="none" stroke="#6698ff" stroke-linecap="round" stroke-linejoin="round" strokeWidth="1.527"/>
      </g>
      <g id="g338">
        <path id="path340" d="M338.911,468.884c1.1.862,10.08-3.942,17.37-3.306,6.437.6,7.481,2.229,9.418,3.306-.381-2.737-7.566-5.732-12.944-5.406-7.342.444-15.626,4.006-13.844,5.406" fill="#6698ff"/>
      </g>
      <g id="g342">
        <path id="path344" d="M338.911,468.884c1.1.862,10.08-3.942,17.37-3.306,6.437.6,7.481,2.229,9.418,3.306-.381-2.737-7.566-5.732-12.944-5.406C345.413,463.922,337.129,467.484,338.911,468.884Z" fill="none" stroke="#6698ff" stroke-linecap="round" stroke-linejoin="round" strokeWidth="0.764"/>
      </g>
      <g id="g346">
        <path id="path348" d="M349,477.363a2.863,2.863,0,1,0,2.863-2.862A2.862,2.862,0,0,0,349,477.363" fill="#6698ff"/>
      </g>
      <g id="g350">
        <path id="path352" d="M346.71,477.363a5.154,5.154,0,1,0,5.154-5.153A5.153,5.153,0,0,0,346.71,477.363Z" fill="none" stroke="#6698ff" strokeMiterlimit="13.333" strokeWidth="0.955"/>
      </g>
      <g id="g354">
        <path id="path356" d="M363.167,479.236c.277-5.246-4.686-7.066-9.012-7.408s-11.772,2.29-12.967,7.729a12.765,12.765,0,0,1,11-5.884c3.512-.024,9.226-.191,10.984,5.563" fill="#6698ff"/>
      </g>
      <g id="g358">
        <path id="path360" d="M363.167,479.236c.277-5.246-4.686-7.066-9.012-7.408s-11.772,2.29-12.967,7.729a12.765,12.765,0,0,1,11-5.884C355.7,473.649,361.409,473.482,363.167,479.236Z" fill="none" stroke="#6698ff" stroke-linecap="round" stroke-linejoin="round" strokeWidth="0.381"/>
      </g>
      <g id="g362">
        <path id="path364" d="M362.772,479.143c-2.052,2.846-9.383,3.356-10.593,3.374a20.311,20.311,0,0,1-10.654-2.959" fill="none" stroke="#6698ff" stroke-linecap="round" strokeMiterlimit="13.333" strokeWidth="1.145"/>
      </g>
      <g id="g366">
        <g id="g380">
          <g id="Group_30" data-name="Group 30">
            <g id="Group_29" data-name="Group 29" clip-path="url(#clip-path-7)">
              <g id="g378" opacity="0.3">
                <g id="g376">
                  <path id="path374" d="M328.151,572.875c-23.861,0-40.143-12.2-51.24-38.381a10.183,10.183,0,1,1,18.753-7.946c9.13,21.546,19.59,25.96,32.487,25.96,2.237,0,22.233-.764,35.193-27.194a10.183,10.183,0,0,1,18.287,8.966c-18.013,36.734-47.711,38.595-53.48,38.595" fill="#6698ff"/>
                </g>
              </g>
            </g>
          </g>
        </g>
      </g>
      <g id="g178">
        <path id="path180" d="M380.884,489.581a121.37,121.37,0,0,1-4.031,19.446c-12.936,43.378-40.574,49.655-48.7,49.655-19.563,0-42.459-17.181-52.255-68.851a130.8,130.8,0,0,1-2.383-14.736v-.008c-4.192-41.285,14.187-73.5,53.282-73.95C370.447,400.626,388.641,428.626,380.884,489.581Z" fill="none" stroke="#6698ff" strokeMiterlimit="13.333" strokeWidth="1.336"/>
      </g>
    </g>
  </g>
</svg>
