<svg xmlns="http://www.w3.org/2000/svg" width="22.659" height="31.281" viewBox="0 0 22.659 31.281">
  <g id="Group_33" data-name="Group 33" transform="translate(-27 -70)">
    <g id="Group_3" data-name="Group 3" transform="translate(65 -203)">
      <g id="Group_2" data-name="Group 2" transform="translate(-307.96 -108.881)">
        <g id="g2654">
          <path id="path2656" d="M273.737,383.748V412.26a.078.078,0,0,1-.022.064.893.893,0,0,1-1.783,0,.083.083,0,0,1-.02-.064L270,401.812a1.7,1.7,0,0,1-.041-.336V383.748a1.889,1.889,0,0,1,3.777,0" fill="#fff"/>
        </g>
        <g id="g2658">
          <path id="path2660" d="M288.843,383.748V412.26a.08.08,0,0,0,.021.064.893.893,0,0,0,1.783,0,.08.08,0,0,0,.021-.064l1.91-10.448a1.7,1.7,0,0,0,.041-.336V383.748a1.888,1.888,0,0,0-3.776,0" fill="#fff"/>
        </g>
        <g id="g2662">
          <path id="path2664" d="M277.275,401.106a1.331,1.331,0,1,0,1.8-.563,1.331,1.331,0,0,0-1.8.563" fill="#fff"/>
        </g>
        <g id="g2666">
          <path id="path2668" d="M282.945,401.106a1.331,1.331,0,1,0,1.8-.563,1.331,1.331,0,0,0-1.8.563" fill="#fff"/>
        </g>
        <g id="g2670">
          <path id="path2672" d="M277.275,406.7a1.331,1.331,0,1,0,1.8-.564,1.331,1.331,0,0,0-1.8.564" fill="#fff"/>
        </g>
        <g id="g2674">
          <path id="path2676" d="M282.945,406.7a1.331,1.331,0,1,0,1.8-.564,1.331,1.331,0,0,0-1.8.564" fill="#fff"/>
        </g>
      </g>
    </g>
  </g>
</svg>
