<svg xmlns="http://www.w3.org/2000/svg" width="22.658" height="31.281" viewBox="0 0 22.658 31.281">
  <g id="Group_35" data-name="Group 35" transform="translate(-69 -24)">
    <g id="Group_6" data-name="Group 6" transform="translate(40.862 -246.133)">
      <g id="g2694" transform="translate(-241.001 -24.789)">
        <path id="path2696" d="M272.916,296.789V325.3a.076.076,0,0,1-.023.064.893.893,0,0,1-1.782,0,.083.083,0,0,1-.02-.064l-1.911-10.448a1.717,1.717,0,0,1-.041-.336V296.789a1.889,1.889,0,0,1,3.777,0" fill="#6698ff"/>
      </g>
      <g id="g2698" transform="translate(-241.001 -24.789)">
        <path id="path2700" d="M272.916,296.789V325.3a.076.076,0,0,1-.023.064.893.893,0,0,1-1.782,0,.083.083,0,0,1-.02-.064l-1.911-10.448a1.717,1.717,0,0,1-.041-.336V296.789a1.889,1.889,0,0,1,3.777,0Z" fill="#6698ff"/>
      </g>
      <g id="g2702" transform="translate(-241.001 -24.789)">
        <path id="path2704" d="M288.021,296.789V325.3a.078.078,0,0,0,.022.064.893.893,0,0,0,1.782,0,.078.078,0,0,0,.022-.064l1.909-10.448a1.717,1.717,0,0,0,.041-.336V296.789a1.888,1.888,0,0,0-3.776,0" fill="#6698ff"/>
      </g>
      <g id="g2706" transform="translate(-241.001 -24.789)">
        <path id="path2708" d="M288.021,296.789V325.3a.078.078,0,0,0,.022.064.893.893,0,0,0,1.782,0,.078.078,0,0,0,.022-.064l1.909-10.448a1.717,1.717,0,0,0,.041-.336V296.789a1.888,1.888,0,0,0-3.776,0Z" fill="#6698ff"/>
      </g>
      <g id="g2710" transform="translate(-241.001 -24.789)">
        <path id="path2712" d="M281.2,309.015a1.331,1.331,0,1,1-1.846.374,1.331,1.331,0,0,1,1.846-.374" fill="#6698ff"/>
      </g>
      <g id="g2714" transform="translate(-241.001 -24.789)">
        <path id="path2716" d="M281.2,309.015a1.331,1.331,0,1,1-1.846.374A1.331,1.331,0,0,1,281.2,309.015Z" fill="#6698ff"/>
      </g>
      <g id="g2718" transform="translate(-241.001 -24.789)">
        <path id="path2720" d="M281.2,323.36a1.332,1.332,0,1,1-1.846.374,1.33,1.33,0,0,1,1.846-.374" fill="#6698ff"/>
      </g>
      <g id="g2722" transform="translate(-241.001 -24.789)">
        <path id="path2724" d="M281.2,323.36a1.332,1.332,0,1,1-1.846.374A1.33,1.33,0,0,1,281.2,323.36Z" fill="#6698ff"/>
      </g>
      <g id="g2726" transform="translate(-241.001 -24.789)">
        <path id="path2728" d="M276.454,314.147a1.331,1.331,0,1,0,1.8-.564,1.331,1.331,0,0,0-1.8.564" fill="#6698ff"/>
      </g>
      <g id="g2730" transform="translate(-241.001 -24.789)">
        <path id="path2732" d="M276.454,314.147a1.331,1.331,0,1,0,1.8-.564A1.331,1.331,0,0,0,276.454,314.147Z" fill="#6698ff"/>
      </g>
      <g id="g2734" transform="translate(-241.001 -24.789)">
        <path id="path2736" d="M282.123,314.147a1.331,1.331,0,1,0,1.8-.564,1.331,1.331,0,0,0-1.8.564" fill="#6698ff"/>
      </g>
      <g id="g2738" transform="translate(-241.001 -24.789)">
        <path id="path2740" d="M282.123,314.147a1.331,1.331,0,1,0,1.8-.564A1.331,1.331,0,0,0,282.123,314.147Z" fill="#6698ff"/>
      </g>
      <g id="g2742" transform="translate(-241.001 -24.789)">
        <path id="path2744" d="M276.454,319.742a1.331,1.331,0,1,0,1.8-.564,1.331,1.331,0,0,0-1.8.564" fill="#6698ff"/>
      </g>
      <g id="g2746" transform="translate(-241.001 -24.789)">
        <path id="path2748" d="M276.454,319.742a1.331,1.331,0,1,0,1.8-.564A1.331,1.331,0,0,0,276.454,319.742Z" fill="#6698ff"/>
      </g>
      <g id="g2750" transform="translate(-241.001 -24.789)">
        <path id="path2752" d="M282.123,319.742a1.331,1.331,0,1,0,1.8-.564,1.331,1.331,0,0,0-1.8.564" fill="#6698ff"/>
      </g>
      <g id="g2754" transform="translate(-241.001 -24.789)">
        <path id="path2756" d="M282.123,319.742a1.331,1.331,0,1,0,1.8-.564A1.331,1.331,0,0,0,282.123,319.742Z" fill="#6698ff"/>
      </g>
    </g>
  </g>
</svg>
