<?xml version="1.0" encoding="UTF-8" standalone="no"?>
<svg
   inkscapeExport-ydpi="72.000099"
   inkscapeExport-xdpi="72.000099"
   inkscapeExport-filename="C:\Users\alexander.kerezov\Desktop\MOAG pictures\Doc immages 1 NEM\Accessories Connection Status.png"
   version="1.1"
   id="svg2"
   xmlSpace="preserve"
   width="20.565308"
   height="17.960331"
   viewBox="0 0 20.565307 17.960331"
   sodipodiDocname="Accessories Connection Status.svg"
   inkscapeVersion="1.0 (4035a4fb49, 2020-05-01)"
   xmlnsInkscape="http://www.inkscape.org/namespaces/inkscape"
   xmlnsSodipodi="http://sodipodi.sourceforge.net/DTD/sodipodi-0.dtd"
   xmlns="http://www.w3.org/2000/svg"
   xmlnsSvg="http://www.w3.org/2000/svg"
   xmlnsRdf="http://www.w3.org/1999/02/22-rdf-syntax-ns#"
   xmlnsCc="http://creativecommons.org/ns#"
   xmlnsDc="http://purl.org/dc/elements/1.1/"><metadata
     id="metadata8"><rdfRDF><ccWork
         rdfAbout=""><dcformat>image/svg+xml</dcformat><dctype
           rdfResource="http://purl.org/dc/dcmitype/StillImage" /><dcTitle /></ccWork></rdfRDF></metadata><defs
     id="defs6" /><sodipodiNamedview
     inkscapeDocument-rotation="0"
     pagecolor="#ffffff"
     bordercolor="#666666"
     borderopacity="1"
     objecttolerance="10"
     gridtolerance="10"
     guidetolerance="10"
     inkscapePageopacity="0"
     inkscapePageshadow="2"
     inkscapeWindow-width="3200"
     inkscapeWindow-height="1721"
     id="namedview4"
     showgrid="false"
     inkscapeZoom="1.4672466"
     inkscapeCx="640.2335"
     inkscapeCy="394.35387"
     inkscapeWindow-x="2391"
     inkscapeWindow-y="-9"
     inkscapeWindow-maximized="1"
     inkscapeCurrent-layer="g10"
     inkscapeShowpageshadow="2"
     inkscapePagecheckerboard="0"
     inkscapeDeskcolor="#d1d1d1" /><g
     id="g10"
     inkscapeGroupmode="layer"
     inkscapeLabel="Apyx_all_final"
     transform="matrix(1.3333333,0,0,-1.3333333,-746.49485,857.91786)"><g
       id="g300"
       transform="translate(565.06815,634.34041)"><path
         d="M 0,0 6.894,6.892 6.066,7.719 -0.83,0.824 -1.705,-0.41 c -0.129,-0.13 -0.129,-0.339 0,-0.47 0.131,-0.128 0.342,-0.128 0.471,0 z m -4.781,-4.301 c -0.095,-0.095 -0.249,-0.095 -0.344,0 -0.096,0.096 -0.096,0.249 0,0.345 l 1.874,1.87 0.269,1.172 1.467,2.43 7.581,7.582 0.74,-0.743 c 0.783,0.784 2.053,0.784 2.836,0 0.78,-0.782 0.78,-2.051 0,-2.834 L 4.542,0.422 V 0.421 c -0.781,-0.778 -0.781,-2.044 0,-2.822 0.778,-0.782 2.044,-0.782 2.822,0 L 8.011,-3.05 c -1.16,-1.157 -3.041,-1.157 -4.2,0 -1.163,1.161 -1.163,3.043 0,4.201 L 8.91,6.252 c 0.379,0.379 0.379,0.995 0,1.373 -0.38,0.38 -0.995,0.38 -1.374,0 L 8.269,6.892 0.687,-0.691 -1.737,-2.159 -2.908,-2.43 Z"
         style="fill:#aa37c7;fill-opacity:1;fill-rule:nonzero;stroke:none"
         id="path302" /></g></g></svg>
