<svg xmlns="http://www.w3.org/2000/svg" width="38.946" height="35.914" viewBox="0 0 38.946 35.914">
  <g id="Group_11" data-name="Group 11" transform="translate(-117.118 -72.442)">
    <g id="g2778" transform="translate(-146.651 -305.808)">
      <path id="path2780" d="M287.685,389.921h0a1.534,1.534,0,0,1,2.131.412l5.156,7.62a1.535,1.535,0,0,1-2.542,1.72l-5.156-7.621a1.536,1.536,0,0,1,.411-2.131" fill="#fff"/>
    </g>
    <g id="g2782" transform="translate(-146.651 -305.808)">
      <path id="path2784" d="M277.848,408.34a1.084,1.084,0,1,0,1.464-.46,1.084,1.084,0,0,0-1.464.46" fill="#fff"/>
    </g>
    <g id="g2786" transform="translate(-146.651 -305.808)">
      <path id="path2788" d="M282.467,408.34a1.085,1.085,0,1,0,1.464-.46,1.085,1.085,0,0,0-1.464.46" fill="#fff"/>
    </g>
    <g id="g2790" transform="translate(-146.651 -305.808)">
      <path id="path2792" d="M282.467,412.577a1.085,1.085,0,1,0,1.464-.46,1.085,1.085,0,0,0-1.464.46" fill="#fff"/>
    </g>
    <g id="g2794" transform="translate(-146.651 -305.808)">
      <path id="path2796" d="M290.161,412.577a1.085,1.085,0,1,0,1.464-.46,1.085,1.085,0,0,0-1.464.46" fill="#fff"/>
    </g>
    <g id="g2798" transform="translate(-146.651 -305.808)">
      <path id="path2800" d="M274.773,412.577a1.085,1.085,0,1,0,1.466-.46,1.085,1.085,0,0,0-1.466.46" fill="#fff"/>
    </g>
    <g id="g2802" transform="translate(-146.651 -305.808)">
      <path id="path2804" d="M287.087,408.34a1.085,1.085,0,1,0,1.464-.46,1.085,1.085,0,0,0-1.464.46" fill="#fff"/>
    </g>
    <g id="g2806" transform="translate(-146.651 -305.808)">
      <path id="path2808" d="M290.809,403.8a1.084,1.084,0,1,0,1.464-.459,1.084,1.084,0,0,0-1.464.459" fill="#fff"/>
    </g>
    <g id="g2810" transform="translate(-146.651 -305.808)">
      <path id="path2812" d="M295.428,403.8a1.085,1.085,0,1,0,1.464-.459,1.085,1.085,0,0,0-1.464.459" fill="#fff"/>
    </g>
    <g id="g2814" transform="translate(-146.651 -305.808)">
      <path id="path2816" d="M279.97,403.8a1.085,1.085,0,1,0,1.465-.459,1.085,1.085,0,0,0-1.465.459" fill="#fff"/>
    </g>
    <g id="g2818" transform="translate(-146.651 -305.808)">
      <path id="path2820" d="M284.591,403.8a1.084,1.084,0,1,0,1.464-.459,1.085,1.085,0,0,0-1.464.459" fill="#fff"/>
    </g>
    <g id="g2822" transform="translate(-146.651 -305.808)">
      <path id="path2824" d="M269.712,403.8a1.085,1.085,0,1,0,1.464-.459,1.085,1.085,0,0,0-1.464.459" fill="#fff"/>
    </g>
    <g id="g2826" transform="translate(-146.651 -305.808)">
      <path id="path2828" d="M274.332,403.8a1.085,1.085,0,1,0,1.464-.459,1.085,1.085,0,0,0-1.464.459" fill="#fff"/>
    </g>
    <g id="g2830" transform="translate(-146.651 -305.808)">
      <path id="path2832" d="M283.242,378.25h0a1.533,1.533,0,0,1,1.533,1.534v7.493a1.533,1.533,0,1,1-3.066,0v-7.493a1.533,1.533,0,0,1,1.533-1.534" fill="#fff"/>
    </g>
    <g id="g2834" transform="translate(-146.651 -305.808)">
      <path id="path2836" d="M283.242,389.787h0a1.533,1.533,0,0,1,1.533,1.534v7.493a1.533,1.533,0,0,1-3.066,0v-7.493a1.533,1.533,0,0,1,1.533-1.534" fill="#fff"/>
    </g>
    <g id="g2838" transform="translate(-146.651 -305.808)">
      <path id="path2840" d="M302.715,399.89h0a1.534,1.534,0,0,1-1.534,1.533H265.3a1.534,1.534,0,1,1,0-3.068h35.878a1.534,1.534,0,0,1,1.534,1.535" fill="#fff"/>
    </g>
    <g id="g2842" transform="translate(-146.651 -305.808)">
      <path id="path2844" d="M279.173,389.921h0a1.533,1.533,0,0,0-2.13.412l-5.156,7.62a1.534,1.534,0,0,0,2.541,1.72l5.157-7.621a1.536,1.536,0,0,0-.412-2.131" fill="#fff"/>
    </g>
  </g>
</svg>
