<svg xmlns="http://www.w3.org/2000/svg" width="12.615" height="20.662" viewBox="0 0 12.615 20.662">
  <g id="text1954" style="isolation: isolate">
    <g id="Group_681" data-name="Group 681" transform="translate(0 0)" style="isolation: isolate">
      <path id="Path_169" data-name="Path 169" d="M1020.827,57.578V56.565a4.8,4.8,0,0,1,.261-1.649,4.24,4.24,0,0,1,.834-1.368,9.34,9.34,0,0,1,1.52-1.335,13.579,13.579,0,0,0,1.361-1.08,3.5,3.5,0,0,0,.752-.952,2.336,2.336,0,0,0,.24-1.074,1.556,1.556,0,0,0-.657-1.355,3.133,3.133,0,0,0-1.834-.464,7.64,7.64,0,0,0-2.333.369,16.012,16.012,0,0,0-2.347.972l-1.491-3a14.341,14.341,0,0,1,2.969-1.238,12.33,12.33,0,0,1,3.5-.473,6.687,6.687,0,0,1,4.536,1.4,4.524,4.524,0,0,1,1.608,3.565,5.02,5.02,0,0,1-.363,1.99,4.892,4.892,0,0,1-1.095,1.561,16.2,16.2,0,0,1-1.826,1.512,14.243,14.243,0,0,0-1.259,1.012,2.3,2.3,0,0,0-.595.814,2.673,2.673,0,0,0-.158.978v.822Zm-.438,4.679a2.1,2.1,0,0,1,.705-1.806,2.792,2.792,0,0,1,1.7-.52,2.742,2.742,0,0,1,1.676.52,2.63,2.63,0,0,1,0,3.584,2.651,2.651,0,0,1-1.676.547,2.7,2.7,0,0,1-1.7-.547A2.113,2.113,0,0,1,1020.389,62.257Z" transform="translate(-1017.133 -43.921)" fill="#fff"/>
    </g>
  </g>
</svg>
