<?xml version="1.0" encoding="UTF-8"?>
<svg version="1.1" viewBox="0 0 438.6 332.92" xmlSpace="preserve" xmlns="http://www.w3.org/2000/svg" xmlnsCc="http://creativecommons.org/ns#" xmlnsDc="http://purl.org/dc/elements/1.1/" xmlnsRdf="http://www.w3.org/1999/02/22-rdf-syntax-ns#"><defs><clipPath id="a"><path d="M 0,249.688 H 328.953 V 0 H 0 Z"/></clipPath></defs><g transform="matrix(1.3333 0 0 -1.3333 0 332.92)"><path d="m-0.88856-0.90929h330.56v254.67h-330.56z" fill="#172238"/><g clip-path="url(#a)"><g transform="translate(271.47 84.48)"><path d="m0 0v22.866h-4.016v-26.472h16.769v3.606zm-23.574 5.131 4.127 11.749 4.015-11.749zm2.417 17.735-9.704-26.472h4.276l1.821 5.317h10.448l1.822-5.317h4.275l-9.704 26.472zm-22.459-3.346c2.937 0 4.76-1.859 5.354-4.574h4.09c-0.93 5.242-4.573 8.143-9.444 8.143-2.9 0-5.131-0.967-6.841-2.677-2.565-2.602-2.677-5.242-2.677-10.782s0.112-8.18 2.677-10.782c1.71-1.71 3.941-2.677 6.841-2.677 4.834 0 8.514 2.9 9.444 8.142h-4.015c-0.632-2.713-2.492-4.573-5.429-4.573-1.599 0-2.937 0.595-3.904 1.636-1.338 1.413-1.598 3.012-1.598 8.254s0.26 6.841 1.598 8.254c0.967 1.041 2.305 1.636 3.904 1.636m-20.23-23.126h4.016v26.473h-4.016zm-12.14 5.391c-1.116-1.302-2.64-1.822-4.536-1.822h-4.833v19.334h4.833c1.896 0 3.42-0.521 4.536-1.822 1.301-1.451 1.413-3.904 1.413-7.845 0-3.942-0.112-6.395-1.413-7.845m-4.09 21.081h-9.295v-26.472h9.295c3.309 0 5.651 1.041 7.511 3.346 1.933 2.379 2.007 5.652 2.007 9.89s-0.074 7.511-2.007 9.89c-1.86 2.305-4.202 3.346-7.511 3.346m-32.356-26.472h16.917v3.606h-12.901v7.957h11.005v3.569h-11.005v7.734h12.901v3.606h-16.917zm-19.067 10.002-7.734 16.47h-4.015v-26.472h4.015v17.698l6.246-12.902h2.975l6.097 12.902v-17.698h4.016v26.472h-4.016z" fill="#fff"/></g><g transform="translate(97.557 145.31)"><path d="m0 0-7.621 17.094-7.588-17.094z" fill="#fff"/></g><g transform="translate(97.17 195.46)"><path d="m0 0c-1.256 2.866-4.088 4.717-7.217 4.717-3.128 0-5.961-1.851-7.217-4.717l-27.74-63.281h7.252c1.463 0 2.786 0.865 3.374 2.204l24.331 55.513 24.332-55.512c0.587-1.34 1.911-2.205 3.373-2.205h7.252zm187-5.098h-8.737c-1.207 0-2.337-0.589-3.025-1.581l-13.228-19.034-13.424 19.054c-0.69 0.979-1.813 1.561-3.01 1.561h-8.565l19.516-27.954-19.657-30.229h8.588c1.257 0 2.427 0.64 3.104 1.7l13.445 21.039 13.348-21.029c0.676-1.065 1.849-1.71 3.109-1.71h8.584l-19.562 30.231zm-114.18-38.763c0-6.592-6.483-10.852-16.516-10.852-9.818 0-16.415 4.361-16.415 10.852v19.472c0 6.552 6.597 10.953 16.415 10.953 9.725 0 16.516-4.586 16.516-11.155zm-16.516 39.169c-15.345 0-25.26-7.443-25.26-18.959v-54.314h8.845v19.035l1.16-0.817c2.607-1.834 6.458-3.709 15.255-3.709 7.375 0 13.591 1.607 17.977 4.648 4.899 3.397 7.383 8.425 7.383 14.947v19.27c0 12.088-9.955 19.899-25.36 19.899m67.259-2.691-15.536-37.887c-0.114-0.276-0.383-0.457-0.682-0.457s-0.568 0.181-0.682 0.457l-15.536 37.887c-0.567 1.383-1.913 2.286-3.408 2.286h-7.159l22.056-53.356-1.57-3.83c-2.423-6.122-3.108-6.91-14.106-6.94v-8.744c11.963 0.023 17.48 0.561 21.039 9.356l25.852 63.514h-6.86c-1.494 0-2.841-0.903-3.408-2.286" fill="#e97300"/></g><g transform="translate(290.97 187.44)"><path d="m0 0h-0.865v-1.547h0.865c0.498 0 0.839 0.341 0.839 0.774 0 0.432-0.341 0.773-0.839 0.773m0.839-4.325-1.049 2.031h-0.655v-2.031h-0.944v5.125h1.927c0.97 0 1.652-0.721 1.652-1.573 0-0.721-0.447-1.193-1.01-1.389l1.14-2.163zm-0.996 6.423c-2.124 0-3.802-1.704-3.802-3.868 0-2.162 1.678-3.866 3.802-3.866 2.123 0 3.788 1.704 3.788 3.866 0 2.164-1.665 3.868-3.788 3.868m0-8.613c-2.622 0-4.745 2.124-4.745 4.745 0 2.623 2.123 4.746 4.745 4.746 2.621 0 4.745-2.123 4.745-4.746 0-2.621-2.124-4.745-4.745-4.745" fill="#e97300"/></g></g></g></svg>
