<svg xmlns="http://www.w3.org/2000/svg" width="23.554" height="21.907" viewBox="0 0 23.554 21.907">
  <path id="Icon_ionic-ios-star-outline" data-name="Icon ionic-ios-star-outline" d="M24.429,10.785h-7.57l-2.3-6.865a.834.834,0,0,0-1.564,0l-2.3,6.865H3.073a.826.826,0,0,0-.823.823.605.605,0,0,0,.015.139.791.791,0,0,0,.345.581l6.222,4.384L6.444,23.655a.826.826,0,0,0,.283.926.8.8,0,0,0,.463.2A1.009,1.009,0,0,0,7.7,24.6l6.072-4.328L19.849,24.6a.964.964,0,0,0,.515.185.739.739,0,0,0,.458-.2.816.816,0,0,0,.283-.926l-2.388-6.942,6.17-4.426.149-.129a.863.863,0,0,0,.268-.551A.871.871,0,0,0,24.429,10.785Zm-6.546,4.76a1.445,1.445,0,0,0-.525,1.636l1.549,4.513a.207.207,0,0,1-.314.237l-3.983-2.841a1.438,1.438,0,0,0-.839-.268,1.411,1.411,0,0,0-.834.268L8.955,21.926a.206.206,0,0,1-.314-.237l1.549-4.513a1.45,1.45,0,0,0-.53-1.647L5.492,12.591a.207.207,0,0,1,.118-.376h5.079a1.439,1.439,0,0,0,1.364-.983l1.523-4.539a.207.207,0,0,1,.391,0l1.523,4.539a1.439,1.439,0,0,0,1.364.983h5.007a.2.2,0,0,1,.118.371Z" transform="translate(-2 -3.125)" fill="#fff" stroke="#fff" strokeWidth="0.5"/>
</svg>
