<svg xmlns="http://www.w3.org/2000/svg" width="41.153" height="38.922" viewBox="0 0 41.153 38.922">
  <g id="Group_46" data-name="Group 46" transform="translate(-240.182 -246.395)">
    <path id="path2722" d="M-315.27,457.263l-5.58-7.24a1.776,1.776,0,0,0-1.406-.692h-10.418a1.776,1.776,0,0,1-1.777-1.777,1.777,1.777,0,0,1,1.777-1.776h12.166a1.78,1.78,0,0,1,1.408.692l5.237,6.793,5.215-6.79a1.772,1.772,0,0,1,1.409-.695h12.164a1.775,1.775,0,0,1,1.777,1.776,1.775,1.775,0,0,1-1.777,1.777h-10.412a1.781,1.781,0,0,0-1.409.7l-5.558,7.236a1.777,1.777,0,0,1-2.816,0" transform="translate(574.633 -179.229)" fill="#f4c500"/>
    <path id="path2726" d="M-313.874,425.624h0A1.778,1.778,0,0,1-312.1,427.4V444a1.776,1.776,0,0,1-1.777,1.776A1.776,1.776,0,0,1-315.65,444V427.4a1.777,1.777,0,0,1,1.776-1.777" transform="translate(574.633 -179.229)" fill="#f4c500"/>
    <path id="path2730" d="M-329.989,451.74a1.256,1.256,0,0,0-.353,1.741,1.259,1.259,0,0,0,1.743.354,1.258,1.258,0,0,0,.353-1.742,1.258,1.258,0,0,0-1.743-.353" transform="translate(574.633 -179.229)" fill="#f4c500"/>
    <path id="path2734" d="M-325.3,454.324a1.257,1.257,0,0,0-.354,1.743,1.257,1.257,0,0,0,1.742.352,1.255,1.255,0,0,0,.353-1.742,1.256,1.256,0,0,0-1.741-.353" transform="translate(574.633 -179.229)" fill="#f4c500"/>
    <path id="path2738" d="M-320.616,456.909a1.255,1.255,0,0,0-.354,1.741,1.257,1.257,0,0,0,1.742.353,1.256,1.256,0,0,0,.353-1.741,1.255,1.255,0,0,0-1.741-.353" transform="translate(574.633 -179.229)" fill="#f4c500"/>
    <path id="path2742" d="M-297.444,451.74a1.256,1.256,0,0,1,.353,1.741,1.257,1.257,0,0,1-1.741.354,1.256,1.256,0,0,1-.354-1.742,1.257,1.257,0,0,1,1.742-.353" transform="translate(574.633 -179.229)" fill="#f4c500"/>
    <path id="path2746" d="M-302.13,454.324a1.256,1.256,0,0,1,.353,1.743,1.256,1.256,0,0,1-1.741.352,1.256,1.256,0,0,1-.354-1.742,1.257,1.257,0,0,1,1.742-.353" transform="translate(574.633 -179.229)" fill="#f4c500"/>
    <path id="path2750" d="M-306.815,456.909a1.257,1.257,0,0,1,.353,1.741A1.258,1.258,0,0,1-308.2,459a1.257,1.257,0,0,1-.353-1.741,1.257,1.257,0,0,1,1.743-.353" transform="translate(574.633 -179.229)" fill="#f4c500"/>
    <path id="path2754" d="M-329.989,457.073a1.257,1.257,0,0,0-.353,1.742,1.259,1.259,0,0,0,1.743.353,1.257,1.257,0,0,0,.353-1.741,1.257,1.257,0,0,0-1.743-.354" transform="translate(574.633 -179.229)" fill="#f4c500"/>
    <path id="path2758" d="M-325.3,459.657a1.257,1.257,0,0,0-.354,1.743,1.257,1.257,0,0,0,1.742.352,1.254,1.254,0,0,0,.353-1.741,1.255,1.255,0,0,0-1.741-.354" transform="translate(574.633 -179.229)" fill="#f4c500"/>
    <path id="path2762" d="M-320.616,462.242a1.255,1.255,0,0,0-.354,1.741,1.258,1.258,0,0,0,1.742.354,1.257,1.257,0,0,0,.353-1.742,1.256,1.256,0,0,0-1.741-.353" transform="translate(574.633 -179.229)" fill="#f4c500"/>
    <path id="path2766" d="M-297.444,457.073a1.257,1.257,0,0,1,.353,1.742,1.257,1.257,0,0,1-1.741.353,1.255,1.255,0,0,1-.354-1.741,1.256,1.256,0,0,1,1.742-.354" transform="translate(574.633 -179.229)" fill="#f4c500"/>
    <path id="path2770" d="M-302.13,459.657a1.256,1.256,0,0,1,.353,1.743,1.256,1.256,0,0,1-1.741.352,1.255,1.255,0,0,1-.354-1.741,1.256,1.256,0,0,1,1.742-.354" transform="translate(574.633 -179.229)" fill="#f4c500"/>
    <path id="path2774" d="M-306.815,462.242a1.257,1.257,0,0,1,.353,1.741,1.259,1.259,0,0,1-1.743.354,1.258,1.258,0,0,1-.353-1.742,1.258,1.258,0,0,1,1.743-.353" transform="translate(574.633 -179.229)" fill="#f4c500"/>
  </g>
</svg>
