<svg xmlns="http://www.w3.org/2000/svg" width="41.153" height="33.589" viewBox="0 0 41.153 33.589">
  <g id="Group_44" data-name="Group 44" transform="translate(-240.182 -171.728)">
    <path id="path2690" d="M-315.27,382.6l-5.58-7.24a1.776,1.776,0,0,0-1.406-.692h-10.418a1.777,1.777,0,0,1-1.777-1.778,1.777,1.777,0,0,1,1.777-1.776h12.166a1.78,1.78,0,0,1,1.408.692l5.237,6.794,5.215-6.791a1.772,1.772,0,0,1,1.409-.7h12.164a1.775,1.775,0,0,1,1.777,1.776,1.776,1.776,0,0,1-1.777,1.778h-10.412a1.78,1.78,0,0,0-1.409.694l-5.558,7.236a1.777,1.777,0,0,1-2.816,0" transform="translate(574.633 -179.229)" fill="#f4c500"/>
    <path id="path2694" d="M-313.874,350.957h0a1.778,1.778,0,0,1,1.777,1.778v16.6a1.777,1.777,0,0,1-1.777,1.776,1.776,1.776,0,0,1-1.776-1.776v-16.6a1.778,1.778,0,0,1,1.776-1.778" transform="translate(574.633 -179.229)" fill="#f4c500"/>
    <path id="path2698" d="M-329.989,377.073a1.257,1.257,0,0,0-.353,1.742,1.259,1.259,0,0,0,1.743.353,1.257,1.257,0,0,0,.353-1.741,1.257,1.257,0,0,0-1.743-.354" transform="translate(574.633 -179.229)" fill="#f4c500"/>
    <path id="path2702" d="M-325.3,379.657a1.257,1.257,0,0,0-.354,1.743,1.257,1.257,0,0,0,1.742.352,1.255,1.255,0,0,0,.353-1.742,1.256,1.256,0,0,0-1.741-.353" transform="translate(574.633 -179.229)" fill="#f4c500"/>
    <path id="path2706" d="M-320.616,382.242a1.255,1.255,0,0,0-.354,1.741,1.258,1.258,0,0,0,1.742.354,1.257,1.257,0,0,0,.353-1.742,1.256,1.256,0,0,0-1.741-.353" transform="translate(574.633 -179.229)" fill="#f4c500"/>
    <path id="path2710" d="M-297.444,377.073a1.257,1.257,0,0,1,.353,1.742,1.257,1.257,0,0,1-1.741.353,1.255,1.255,0,0,1-.354-1.741,1.256,1.256,0,0,1,1.742-.354" transform="translate(574.633 -179.229)" fill="#f4c500"/>
    <path id="path2714" d="M-302.13,379.657a1.256,1.256,0,0,1,.353,1.743,1.256,1.256,0,0,1-1.741.352,1.256,1.256,0,0,1-.354-1.742,1.257,1.257,0,0,1,1.742-.353" transform="translate(574.633 -179.229)" fill="#f4c500"/>
    <path id="path2718" d="M-306.815,382.242a1.257,1.257,0,0,1,.353,1.741,1.259,1.259,0,0,1-1.743.354,1.258,1.258,0,0,1-.353-1.742,1.258,1.258,0,0,1,1.743-.353" transform="translate(574.633 -179.229)" fill="#f4c500"/>
  </g>
</svg>
