<svg xmlns="http://www.w3.org/2000/svg" width="41.154" height="44.255" viewBox="0 0 41.154 44.255">
  <g id="Group_47" data-name="Group 47" transform="translate(-240.182 -319.728)">
    <path id="path2778" d="M-315.731,530l-4.945-6.416a2.354,2.354,0,0,0-1.867-.917h-10.13a1.778,1.778,0,0,1-1.778-1.778,1.778,1.778,0,0,1,1.778-1.777h11.88a2.36,2.36,0,0,1,1.868.919l4.6,5.969a.579.579,0,0,0,.92,0l4.581-5.967a2.359,2.359,0,0,1,1.87-.921h11.878a1.777,1.777,0,0,1,1.778,1.777,1.777,1.777,0,0,1-1.778,1.778H-305.2a2.363,2.363,0,0,0-1.87.92l-4.922,6.41a2.359,2.359,0,0,1-3.738,0" transform="translate(574.633 -179.229)" fill="#f4c500"/>
    <path id="path2782" d="M-313.874,498.957h0a1.778,1.778,0,0,1,1.777,1.778v16.6a1.777,1.777,0,0,1-1.777,1.776,1.776,1.776,0,0,1-1.776-1.776v-16.6a1.778,1.778,0,0,1,1.776-1.778" transform="translate(574.633 -179.229)" fill="#f4c500"/>
    <path id="path2786" d="M-329.989,525.073a1.257,1.257,0,0,0-.353,1.742,1.259,1.259,0,0,0,1.743.353,1.257,1.257,0,0,0,.353-1.741,1.257,1.257,0,0,0-1.743-.354" transform="translate(574.633 -179.229)" fill="#f4c500"/>
    <path id="path2790" d="M-325.3,527.657a1.257,1.257,0,0,0-.354,1.743,1.257,1.257,0,0,0,1.742.352,1.254,1.254,0,0,0,.353-1.741,1.255,1.255,0,0,0-1.741-.354" transform="translate(574.633 -179.229)" fill="#f4c500"/>
    <path id="path2794" d="M-320.616,530.242a1.254,1.254,0,0,0-.354,1.741,1.258,1.258,0,0,0,1.742.354,1.257,1.257,0,0,0,.353-1.742,1.256,1.256,0,0,0-1.741-.353" transform="translate(574.633 -179.229)" fill="#f4c500"/>
    <path id="path2798" d="M-297.444,525.073a1.257,1.257,0,0,1,.353,1.742,1.257,1.257,0,0,1-1.741.353,1.255,1.255,0,0,1-.354-1.741,1.256,1.256,0,0,1,1.742-.354" transform="translate(574.633 -179.229)" fill="#f4c500"/>
    <path id="path2802" d="M-302.13,527.657a1.256,1.256,0,0,1,.353,1.743,1.256,1.256,0,0,1-1.741.352,1.255,1.255,0,0,1-.354-1.741,1.256,1.256,0,0,1,1.742-.354" transform="translate(574.633 -179.229)" fill="#f4c500"/>
    <path id="path2806" d="M-306.815,530.242a1.257,1.257,0,0,1,.353,1.741,1.259,1.259,0,0,1-1.743.354,1.258,1.258,0,0,1-.353-1.742,1.258,1.258,0,0,1,1.743-.353" transform="translate(574.633 -179.229)" fill="#f4c500"/>
    <path id="path2810" d="M-329.989,530.407a1.256,1.256,0,0,0-.353,1.741,1.258,1.258,0,0,0,1.743.353,1.257,1.257,0,0,0,.353-1.741,1.257,1.257,0,0,0-1.743-.353" transform="translate(574.633 -179.229)" fill="#f4c500"/>
    <path id="path2814" d="M-325.3,532.991a1.256,1.256,0,0,0-.354,1.742,1.256,1.256,0,0,0,1.742.352,1.254,1.254,0,0,0,.353-1.741,1.255,1.255,0,0,0-1.741-.353" transform="translate(574.633 -179.229)" fill="#f4c500"/>
    <path id="path2818" d="M-320.616,535.575a1.256,1.256,0,0,0-.354,1.742,1.258,1.258,0,0,0,1.742.353,1.256,1.256,0,0,0,.353-1.741,1.255,1.255,0,0,0-1.741-.354" transform="translate(574.633 -179.229)" fill="#f4c500"/>
    <path id="path2822" d="M-297.444,530.407a1.256,1.256,0,0,1,.353,1.741,1.256,1.256,0,0,1-1.741.353,1.254,1.254,0,0,1-.354-1.741,1.256,1.256,0,0,1,1.742-.353" transform="translate(574.633 -179.229)" fill="#f4c500"/>
    <path id="path2826" d="M-302.13,532.991a1.255,1.255,0,0,1,.353,1.742,1.255,1.255,0,0,1-1.741.352,1.255,1.255,0,0,1-.354-1.741,1.256,1.256,0,0,1,1.742-.353" transform="translate(574.633 -179.229)" fill="#f4c500"/>
    <path id="path2830" d="M-306.815,535.575a1.258,1.258,0,0,1,.353,1.742,1.259,1.259,0,0,1-1.743.353,1.257,1.257,0,0,1-.353-1.741,1.257,1.257,0,0,1,1.743-.354" transform="translate(574.633 -179.229)" fill="#f4c500"/>
    <path id="path2834" d="M-329.989,535.74a1.256,1.256,0,0,0-.353,1.741,1.259,1.259,0,0,0,1.743.354,1.258,1.258,0,0,0,.353-1.742,1.258,1.258,0,0,0-1.743-.353" transform="translate(574.633 -179.229)" fill="#f4c500"/>
    <path id="path2838" d="M-325.3,538.324a1.256,1.256,0,0,0-.354,1.742,1.256,1.256,0,0,0,1.742.352,1.254,1.254,0,0,0,.353-1.741,1.255,1.255,0,0,0-1.741-.353" transform="translate(574.633 -179.229)" fill="#f4c500"/>
    <path id="path2842" d="M-320.616,540.909a1.255,1.255,0,0,0-.354,1.741,1.257,1.257,0,0,0,1.742.353,1.256,1.256,0,0,0,.353-1.741,1.255,1.255,0,0,0-1.741-.353" transform="translate(574.633 -179.229)" fill="#f4c500"/>
    <path id="path2846" d="M-297.444,535.74a1.256,1.256,0,0,1,.353,1.741,1.257,1.257,0,0,1-1.741.354,1.256,1.256,0,0,1-.354-1.742,1.257,1.257,0,0,1,1.742-.353" transform="translate(574.633 -179.229)" fill="#f4c500"/>
    <path id="path2850" d="M-302.13,538.324a1.255,1.255,0,0,1,.353,1.742,1.255,1.255,0,0,1-1.741.352,1.255,1.255,0,0,1-.354-1.741,1.256,1.256,0,0,1,1.742-.353" transform="translate(574.633 -179.229)" fill="#f4c500"/>
    <path id="path2854" d="M-306.815,540.909a1.257,1.257,0,0,1,.353,1.741A1.258,1.258,0,0,1-308.2,543a1.257,1.257,0,0,1-.353-1.741,1.257,1.257,0,0,1,1.743-.353" transform="translate(574.633 -179.229)" fill="#f4c500"/>
  </g>
</svg>
