<svg xmlns="http://www.w3.org/2000/svg" width="27.025" height="114.564" viewBox="0 0 27.025 114.564">
  <g id="g1266" transform="translate(-181.804 -291.422)">
    <g id="g824">
      <path id="path826" d="M208.162,315.48V392.5a13.854,13.854,0,0,1-.253,2.588,13.271,13.271,0,0,1-.748,2.4c-.08.2-.16.386-.254.574a14.958,14.958,0,0,1-.933,1.614,13.627,13.627,0,0,1-10.635,5.645c-10.3,0-12.609-10.435-12.676-10.863a13.609,13.609,0,0,1-.146-1.96V315.48a12.852,12.852,0,0,1,8.165-11.956,13.737,13.737,0,0,1,1.948-.587v-3.829h-2.081a3.509,3.509,0,0,1-2.468-5.991,3.419,3.419,0,0,1,2.468-1.028h9.58a3.514,3.514,0,0,1,3.509,3.51,3.554,3.554,0,0,1-1.027,2.481,3.477,3.477,0,0,1-2.482,1.028h-2.082v3.829a13.659,13.659,0,0,1,1.948.587,12.937,12.937,0,0,1,4.418,2.881,12.784,12.784,0,0,1,3.749,9.075" fill="#172238"/>
    </g>
    <g id="g828">
      <path id="path830" d="M208.162,315.48V392.5a13.854,13.854,0,0,1-.253,2.588,13.271,13.271,0,0,1-.748,2.4c-.08.2-.16.386-.254.574a14.958,14.958,0,0,1-.933,1.614,13.627,13.627,0,0,1-10.635,5.645c-10.3,0-12.609-10.435-12.676-10.863a13.609,13.609,0,0,1-.146-1.96V315.48a12.852,12.852,0,0,1,8.165-11.956,13.737,13.737,0,0,1,1.948-.587v-3.829h-2.081a3.509,3.509,0,0,1-2.468-5.991,3.419,3.419,0,0,1,2.468-1.028h9.58a3.514,3.514,0,0,1,3.509,3.51,3.554,3.554,0,0,1-1.027,2.481,3.477,3.477,0,0,1-2.482,1.028h-2.082v3.829a13.659,13.659,0,0,1,1.948.587,12.937,12.937,0,0,1,4.418,2.881A12.784,12.784,0,0,1,208.162,315.48Z" fill="none" stroke="#6698ff" strokeMiterlimit="13.333" strokeWidth="1.333"/>
    </g>
    <g id="g832">
      <path id="path834" d="M183.062,394.931l-.34-72.493s.057-.349,12.643-.128l12.132.213.171,72.408c.013,5.528-5.508,10.01-12.3,10.01s-12.3-4.482-12.3-10.01" fill="#6698ff"/>
    </g>
    <g id="g836">
      <path id="path838" d="M183.062,392.558V315.613a12.3,12.3,0,1,1,24.606,0v76.945a12.3,12.3,0,0,1-24.606,0Z" fill="none" stroke="#6698ff" strokeMiterlimit="13.333" strokeWidth="1.333"/>
    </g>
    <g id="g840">
      <path id="path842" d="M203.551,294.82a3.525,3.525,0,0,1-.94,3.26,3.473,3.473,0,0,1-2.482,1.028h-2.081v3.829c.667.147-.581.555-.581.555l-2.052-.18a.858.858,0,0,0-.152,0l-1.97.161s-1.329-.388-.662-.535v-3.829h-1.847a3.664,3.664,0,0,1-3.725-3.707,3.492,3.492,0,0,1,1.021-2.284,3.424,3.424,0,0,1,2.469-1.028h9.376a3.666,3.666,0,0,1,3.626,2.731" fill="#172238"/>
    </g>
    <g id="g844">
      <path id="path846" d="M203.551,294.82a3.525,3.525,0,0,1-.94,3.26,3.473,3.473,0,0,1-2.482,1.028h-2.081v3.829c.667.147-.581.555-.581.555l-2.052-.18a.858.858,0,0,0-.152,0l-1.97.161s-1.329-.388-.662-.535v-3.829h-1.847a3.664,3.664,0,0,1-3.725-3.707,3.492,3.492,0,0,1,1.021-2.284,3.424,3.424,0,0,1,2.469-1.028h9.376A3.666,3.666,0,0,1,203.551,294.82Z" fill="none" stroke="#6698ff" strokeMiterlimit="13.333" strokeWidth="1.333"/>
    </g>
    <g id="g848">
      <path id="path850" d="M193.314,302.065l-.058,2.374,4.061.063.052-1.791Z" fill="#172238"/>
    </g>
    <g id="text806-5-1-1" style="isolation: isolate">
      <text id="No_Sns." data-name="No Sns." transform="translate(201.804 396.751) rotate(-90)" fill="#fff" font-size="18.667" font-family="OpenSansCondensed-Bold, Open Sans" font-weight="700" style="isolation: isolate"><tspan x="0" y="0">No Sns.</tspan></text>
    </g>
  </g>
</svg>
