<svg version="1.1" viewBox="0 0 519.58 153.6" xmlns="http://www.w3.org/2000/svg" xmlnsCc="http://creativecommons.org/ns#" xmlnsDc="http://purl.org/dc/elements/1.1/" xmlnsRdf="http://www.w3.org/1999/02/22-rdf-syntax-ns#"><defs><clipPath id="a"><path d="M 0,115.2 H 389.685 V 0 H 0 Z"/></clipPath></defs><g transform="matrix(1.3333 0 0 -1.3333 0 153.6)"><path d="m0.19911-0.38599h389.76v115.33h-389.76z" fill="#172238"/><g transform="translate(-1.1121 .22241)"><g clip-path="url(#a)"><g transform="translate(214.19 55.83)"><path d="m0 0 0.288 0.622-14.898 32.227c0.046 1e-3 0.091 1e-3 0.138 1e-3 3.235 0 9.335-1.064 12.743-8.437l6.507-14.076 1.686 3.645-5.415 11.715c-2.982 6.451-7.785 8.829-11.289 9.688-3.774 0.924-6.847 0.319-6.975 0.292l-1.896-0.385 19.116-41.349c4e-3 -9e-3 0.01-0.017 0.014-0.027-0.869 1.86-0.946 4.08-0.019 6.084" fill="#fff"/></g><g transform="translate(220.66 62.52)"><path d="m0 0 3.688-7.975c0.557-1.206 0.507-2.498-0.057-3.595 0.027 0.052 0.091 0.06 0.115 0.114l2.431 5.388-4.491 9.714z" fill="#fff"/></g><g transform="translate(166.7 45.585)"><path d="m0 0c-2.712 0-5.313 0.331-7.732 0.984-2.421 0.655-4.56 1.639-6.356 2.926-1.799 1.288-3.252 2.905-4.319 4.807-1.068 1.904-1.609 4.102-1.609 6.535v30.178h8.155v-30.178c0-1.335 0.372-2.467 1.105-3.365 0.747-0.918 1.715-1.665 2.877-2.22 1.172-0.563 2.462-0.972 3.834-1.217 1.374-0.246 2.721-0.371 4.006-0.371 1.184 0 2.443 0.125 3.74 0.371 1.298 0.244 2.525 0.654 3.647 1.215 1.11 0.554 2.04 1.3 2.765 2.219 0.71 0.899 1.071 2.032 1.071 3.368v30.178h8.154v-30.178c0-2.427-0.489-4.623-1.455-6.526-0.967-1.904-2.332-3.523-4.056-4.813-1.723-1.289-3.786-2.274-6.132-2.929-2.345-0.653-4.934-0.984-7.695-0.984" fill="#fff"/></g><g transform="translate(127.86 46.197)"><path d="m0 0v30.277c0 1.284-0.372 2.391-1.106 3.291-0.751 0.919-1.708 1.679-2.845 2.259-1.143 0.585-2.419 1.006-3.792 1.252-1.379 0.246-2.676 0.371-3.856 0.371-1.229 0-2.538-0.125-3.892-0.371-1.348-0.246-2.598-0.667-3.716-1.251-1.111-0.579-2.043-1.339-2.768-2.257-0.711-0.901-1.071-2.009-1.071-3.294v-30.277h-8.154v30.277c0 2.432 0.515 4.629 1.532 6.532 1.014 1.898 2.43 3.516 4.207 4.81 1.768 1.285 3.868 2.27 6.243 2.926 2.368 0.653 4.945 0.984 7.657 0.984 2.765 0 5.379-0.343 7.771-1.022 2.397-0.68 4.498-1.677 6.243-2.964 1.75-1.292 3.151-2.897 4.167-4.771 1.018-1.878 1.533-4.064 1.533-6.495v-30.277z" fill="#fff"/></g><g transform="translate(77.843 72.714)"><path d="m0 0v3.648c0 1.194-0.302 2.258-0.896 3.162-0.602 0.913-1.432 1.681-2.466 2.283-1.049 0.609-2.286 1.066-3.675 1.358-1.403 0.296-2.912 0.445-4.485 0.445-1.572 0-3.08-0.162-4.482-0.481-1.392-0.318-2.616-0.8-3.636-1.431-1.013-0.627-1.819-1.396-2.397-2.286-0.569-0.879-0.859-1.905-0.859-3.05v-3.648zm-11.522-27.129c-2.558 0-5.04 0.318-7.378 0.946-2.345 0.63-4.44 1.589-6.23 2.85-1.799 1.266-3.25 2.897-4.314 4.848-1.066 1.954-1.606 4.278-1.606 6.909v15.224c0 2.482 0.515 4.705 1.532 6.607 1.015 1.899 2.417 3.517 4.168 4.809 1.745 1.287 3.833 2.271 6.208 2.927 2.368 0.654 4.944 0.985 7.657 0.985 2.665 0 5.214-0.306 7.576-0.909 2.372-0.604 4.473-1.538 6.244-2.774 1.779-1.244 3.208-2.851 4.248-4.774 1.042-1.931 1.571-4.243 1.571-6.871v-11.726h-31.05v-3.649c0-1.146 0.302-2.184 0.896-3.086 0.601-0.915 1.419-1.697 2.434-2.325 1.023-0.632 2.233-1.114 3.601-1.431 1.371-0.319 2.866-0.481 4.443-0.481 2.208 0 4.349 0.373 6.362 1.11 1.999 0.731 3.655 1.842 4.922 3.303l0.138 0.159 7.241-4.296-0.158-0.223c-1.819-2.577-4.429-4.6-7.757-6.012-3.316-1.406-6.933-2.12-10.748-2.12" fill="#fff"/></g><g transform="translate(12.096 58.791)"><path d="m0 0v17.045c0 4.759 1.685 8.521 5.006 11.184 3.306 2.649 7.939 3.993 13.771 3.993h10.377v-8.079h-10.377c-3.235 0-5.85-0.643-7.774-1.91-1.917-1.261-2.849-2.959-2.849-5.188v-29.641s-8.154 3.033-8.154 12.596" fill="#fff"/></g><path d="m255.88 91.014h8.152v-44.819h-8.152z" fill="#fff"/><g transform="translate(295.4 83.61)"><path d="m0 0c-1.521 0-2.991-0.162-4.369-0.48-1.367-0.32-2.591-0.801-3.637-1.434-1.039-0.628-1.871-1.398-2.473-2.287-0.593-0.88-0.894-1.904-0.894-3.047v-15.225c0-1.195 0.302-2.258 0.896-3.162 0.602-0.915 1.433-1.696 2.47-2.322 1.052-0.637 2.277-1.131 3.642-1.472 1.373-0.343 2.842-0.517 4.365-0.517s3.005 0.175 4.402 0.518c1.391 0.34 2.628 0.835 3.681 1.471 1.039 0.628 1.884 1.411 2.51 2.326 0.617 0.903 0.93 1.967 0.93 3.158v15.225c0 1.139-0.312 2.163-0.928 3.043-0.626 0.89-1.472 1.661-2.513 2.291-1.047 0.632-2.283 1.114-3.676 1.433-1.403 0.319-2.885 0.481-4.406 0.481m0.037-38.025c-2.716 0-5.293 0.343-7.659 1.022-2.375 0.681-4.464 1.691-6.207 3.004-1.751 1.316-3.152 2.959-4.167 4.884-1.017 1.926-1.531 4.16-1.531 6.642v15.225c0 2.481 0.515 4.704 1.531 6.606 1.016 1.9 2.418 3.518 4.169 4.81 1.744 1.285 3.832 2.27 6.207 2.927 2.368 0.653 4.944 0.984 7.657 0.984 2.712 0 5.301-0.331 7.693-0.984 2.4-0.657 4.501-1.641 6.246-2.927 1.751-1.292 3.153-2.91 4.169-4.81 1.017-1.904 1.533-4.127 1.533-6.606v-15.225c0-2.479-0.516-4.714-1.533-6.642-1.015-1.925-2.416-3.568-4.167-4.884-1.745-1.313-3.845-2.323-6.246-3.004-2.39-0.679-4.98-1.022-7.695-1.022" fill="#fff"/></g><g transform="translate(357.82 76.437)"><path d="m0 0c0 1.284-0.372 2.392-1.105 3.291-0.751 0.919-1.708 1.679-2.845 2.259-1.142 0.584-2.417 1.005-3.792 1.252-1.379 0.246-2.676 0.371-3.856 0.371-1.229 0-2.539-0.125-3.892-0.371-1.349-0.246-2.6-0.667-3.715-1.251-1.112-0.579-2.043-1.339-2.77-2.257-0.71-0.901-1.07-2.01-1.07-3.294v-30.252h-8.154v30.252c0 2.432 0.515 4.629 1.531 6.531 1.015 1.899 2.431 3.517 4.207 4.811 1.77 1.285 3.87 2.269 6.243 2.926 2.368 0.653 4.945 0.984 7.657 0.984 2.764 0 5.379-0.344 7.772-1.023 2.397-0.679 4.497-1.676 6.243-2.963 1.749-1.292 3.15-2.898 4.166-4.771 1.018-1.881 1.534-4.065 1.534-6.682v-17.97c0-8.781-8.154-12.095-8.154-12.095z" fill="#fff"/></g><g transform="translate(225.51 99.855)"><path d="m0 0c0-2.683-2.175-4.858-4.858-4.858s-4.859 2.175-4.859 4.858c0 2.684 2.176 4.859 4.859 4.859s4.858-2.175 4.858-4.859" fill="#00a7cf"/></g><g transform="translate(241.59 88.68)"><path d="m0 0c-3.234 0-9.335-1.063-12.743-8.437l-11.88-25.697c-0.952-2.06-0.068-4.517 1.971-5.476 0.974-0.46 2.071-0.509 3.088-0.137 1.029 0.375 1.849 1.129 2.31 2.125l17.393 37.621c-0.046 1e-3 -0.092 1e-3 -0.139 1e-3m-20.951-43.056c-1.027 0-2.048 0.227-3.004 0.676-3.556 1.673-5.102 5.948-3.445 9.53l11.879 25.698c2.982 6.451 7.786 8.829 11.29 9.687 3.773 0.924 6.846 0.319 6.974 0.292l1.897-0.385-19.117-41.348c-0.804-1.741-2.24-3.062-4.041-3.717-0.794-0.289-1.615-0.433-2.433-0.433" fill="#00a7cf"/></g><g transform="translate(377.7 90.239)"><path d="m0 0h-1.057v-1.889h1.057c0.608 0 1.024 0.416 1.024 0.945 0 0.528-0.416 0.944-1.024 0.944m1.024-5.282-1.28 2.48h-0.801v-2.48h-1.152v6.259h2.354c1.183 0 2.016-0.881 2.016-1.921 0-0.881-0.544-1.457-1.232-1.698l1.392-2.64zm-1.216 7.843c-2.593 0-4.642-2.081-4.642-4.722s2.049-4.722 4.642-4.722 4.626 2.081 4.626 4.722-2.033 4.722-4.626 4.722m0-10.516c-3.202 0-5.794 2.593-5.794 5.794s2.592 5.794 5.794 5.794c3.201 0 5.795-2.593 5.795-5.794s-2.594-5.794-5.795-5.794" fill="#fff"/></g><g transform="translate(67.36 28.378)"><path d="m0 0h-3.025v-4.216h3.025c1.361 0 2.288 0.776 2.288 2.099s-0.927 2.117-2.288 2.117m2.363-11.627-2.836 5.672h-2.552v-5.672h-2.041v13.461h5.217c2.553 0 4.179-1.645 4.179-3.933 0-1.928-1.173-3.157-2.685-3.573l3.101-5.955z" fill="#fff"/></g><g transform="translate(74.682 16.751)"><path d="m0 0v13.461h8.602v-1.834h-6.56v-3.933h5.596v-1.814h-5.596v-4.046h6.56v-1.834z" fill="#fff"/></g><g transform="translate(89.659 16.638)"><path d="m0 0c-2.023 0-3.46 0.473-4.764 1.777l1.342 1.342c0.983-0.983 2.098-1.305 3.46-1.305 1.777 0 2.779 0.757 2.779 2.081 0 0.604-0.151 1.077-0.529 1.398-0.341 0.303-0.795 0.473-1.475 0.567l-1.588 0.228c-1.097 0.17-1.948 0.51-2.534 1.077-0.661 0.606-1.002 1.475-1.002 2.59 0 2.345 1.702 3.933 4.5 3.933 1.796 0 3.025-0.455 4.178-1.532l-1.285-1.286c-0.832 0.795-1.815 1.04-2.969 1.04-1.588 0-2.439-0.869-2.439-2.098 0-0.492 0.133-0.946 0.492-1.248 0.34-0.302 0.737-0.492 1.475-0.605l1.607-0.246c1.229-0.189 1.909-0.473 2.495-1.002 0.718-0.661 1.097-1.588 1.097-2.76 0-2.476-2.004-3.951-4.84-3.951" fill="#fff"/></g><g transform="translate(104.75 16.751)"><path d="m0 0v5.88h-5.464v-5.88h-2.041v13.461h2.041v-5.747h5.464v5.747h2.042v-13.461z" fill="#fff"/></g><g transform="translate(114.51 27.168)"><path d="m0 0-2.098-5.975h4.14zm3.536-10.417-0.927 2.703h-5.312l-0.927-2.703h-2.174l4.934 13.461h1.645l4.934-13.461z" fill="#fff"/></g><g transform="translate(127.12 28.378)"><path d="m0 0h-2.95v-4.5h2.95c1.437 0 2.382 0.832 2.382 2.25 0 1.438-0.945 2.25-2.382 2.25m0.113-6.314h-3.063v-5.313h-2.041v13.461h5.104c2.628 0 4.311-1.739 4.311-4.084 0-2.344-1.683-4.064-4.311-4.064" fill="#fff"/></g><path d="m134.03 30.212h2.042v-13.461h-2.042z" fill="#fff"/><g transform="translate(147.85 16.751)"><path d="m0 0-6.22 9.472v-9.472h-2.042v13.461h1.872l6.22-9.453v9.453h2.042v-13.461z" fill="#fff"/></g><g transform="translate(161.3 18.169)"><path d="m0 0c-1.002-1.059-2.288-1.531-3.706-1.531-1.474 0-2.608 0.491-3.478 1.361-1.305 1.323-1.361 2.665-1.361 5.482s0.056 4.16 1.361 5.483c0.87 0.87 2.004 1.361 3.478 1.361 2.836 0 4.519-1.872 4.878-4.159h-2.042c-0.34 1.475-1.323 2.345-2.836 2.345-0.813 0-1.493-0.303-2.003-0.832-0.662-0.719-0.794-1.531-0.794-4.198 0-2.666 0.132-3.478 0.794-4.197 0.51-0.529 1.19-0.832 2.003-0.832 0.889 0 1.683 0.341 2.212 0.965 0.492 0.566 0.662 1.247 0.662 2.117v0.756h-2.874v1.739h4.916v-2.06c0-1.758-0.321-2.836-1.21-3.8" fill="#fff"/></g><g transform="translate(181.04 16.751)"><path d="m0 0h-1.777l-2.741 9.434-2.723-9.434h-1.777l-3.516 13.461h2.155l2.344-9.623 2.704 9.623h1.644l2.704-9.623 2.344 9.623h2.156z" fill="#fff"/></g><g transform="translate(194.04 16.751)"><path d="m0 0v5.88h-5.464v-5.88h-2.041v13.461h2.041v-5.747h5.464v5.747h2.042v-13.461z" fill="#fff"/></g><g transform="translate(203.8 27.168)"><path d="m0 0-2.099-5.975h4.141zm3.535-10.417-0.927 2.703h-5.312l-0.926-2.703h-2.174l4.934 13.461h1.644l4.935-13.461z" fill="#fff"/></g><g transform="translate(214.84 28.378)"><path d="m0 0v-11.627h-2.042v11.627h-3.705v1.834h9.452v-1.834z" fill="#fff"/></g><g transform="translate(220.59 26.506)"><path d="m0 0v3.706h2.117v-1.985z" fill="#fff"/></g><g transform="translate(229.52 16.638)"><path d="m0 0c-2.022 0-3.459 0.473-4.764 1.777l1.342 1.342c0.984-0.983 2.099-1.305 3.46-1.305 1.777 0 2.779 0.757 2.779 2.081 0 0.604-0.151 1.077-0.529 1.398-0.341 0.303-0.794 0.473-1.475 0.567l-1.587 0.228c-1.097 0.17-1.948 0.51-2.535 1.077-0.661 0.606-1.002 1.475-1.002 2.59 0 2.345 1.703 3.933 4.5 3.933 1.796 0 3.025-0.455 4.178-1.532l-1.285-1.286c-0.832 0.795-1.815 1.04-2.969 1.04-1.588 0-2.438-0.869-2.438-2.098 0-0.492 0.133-0.946 0.491-1.248 0.341-0.302 0.738-0.492 1.476-0.605l1.606-0.246c1.229-0.189 1.909-0.473 2.496-1.002 0.718-0.661 1.096-1.588 1.096-2.76 0-2.476-2.004-3.951-4.84-3.951" fill="#fff"/></g><g transform="translate(246.63 28.378)"><path d="m0 0h-2.949v-4.5h2.949c1.437 0 2.383 0.832 2.383 2.25 0 1.438-0.946 2.25-2.383 2.25m0.113-6.314h-3.062v-5.313h-2.042v13.461h5.104c2.628 0 4.311-1.739 4.311-4.084 0-2.344-1.683-4.064-4.311-4.064" fill="#fff"/></g><g transform="translate(259.89 27.678)"><path d="m0 0c-0.511 0.529-1.19 0.832-2.004 0.832-0.812 0-1.493-0.303-2.004-0.832-0.662-0.719-0.794-1.531-0.794-4.197s0.132-3.46 0.794-4.178c0.511-0.53 1.192-0.852 2.004-0.852 0.814 0 1.493 0.322 2.004 0.852 0.681 0.699 0.794 1.512 0.794 4.178s-0.113 3.497-0.794 4.197m1.475-9.68c-0.87-0.87-2.004-1.361-3.479-1.361s-2.609 0.491-3.478 1.361c-1.324 1.324-1.362 2.665-1.362 5.483 0 2.816 0.038 4.159 1.362 5.482 0.869 0.87 2.003 1.361 3.478 1.361s2.609-0.491 3.479-1.361c1.323-1.323 1.361-2.666 1.361-5.482 0-2.818-0.038-4.159-1.361-5.483" fill="#fff"/></g><g transform="translate(269.33 16.638)"><path d="m0 0c-2.022 0-3.459 0.473-4.764 1.777l1.342 1.342c0.984-0.983 2.099-1.305 3.46-1.305 1.777 0 2.779 0.757 2.779 2.081 0 0.604-0.151 1.077-0.529 1.398-0.341 0.303-0.794 0.473-1.475 0.567l-1.587 0.228c-1.097 0.17-1.948 0.51-2.535 1.077-0.661 0.606-1.002 1.475-1.002 2.59 0 2.345 1.703 3.933 4.5 3.933 1.796 0 3.025-0.455 4.178-1.532l-1.285-1.286c-0.832 0.795-1.815 1.04-2.969 1.04-1.588 0-2.438-0.869-2.438-2.098 0-0.492 0.133-0.946 0.491-1.248 0.341-0.302 0.738-0.492 1.476-0.605l1.606-0.246c1.229-0.189 1.909-0.473 2.496-1.002 0.718-0.661 1.096-1.588 1.096-2.76 0-2.476-2.004-3.951-4.84-3.951" fill="#fff"/></g><g transform="translate(280.39 16.638)"><path d="m0 0c-2.022 0-3.459 0.473-4.764 1.777l1.342 1.342c0.984-0.983 2.099-1.305 3.46-1.305 1.777 0 2.779 0.757 2.779 2.081 0 0.604-0.151 1.077-0.529 1.398-0.341 0.303-0.794 0.473-1.475 0.567l-1.587 0.228c-1.097 0.17-1.948 0.51-2.535 1.077-0.661 0.606-1.002 1.475-1.002 2.59 0 2.345 1.703 3.933 4.5 3.933 1.796 0 3.025-0.455 4.178-1.532l-1.285-1.286c-0.832 0.795-1.815 1.04-2.969 1.04-1.588 0-2.438-0.869-2.438-2.098 0-0.492 0.133-0.946 0.491-1.248 0.341-0.302 0.738-0.492 1.476-0.605l1.606-0.246c1.229-0.189 1.909-0.473 2.496-1.002 0.718-0.661 1.096-1.588 1.096-2.76 0-2.476-2.004-3.951-4.84-3.951" fill="#fff"/></g><path d="m287.98 30.212h2.042v-13.461h-2.042z" fill="#fff"/><g transform="translate(298.79 22.687)"><path d="m0 0h-3.214v-4.103h3.214c1.418 0 2.212 0.87 2.212 2.061s-0.794 2.042-2.212 2.042m-0.188 5.69h-3.026v-3.856h3.026c1.304 0 2.192 0.681 2.192 1.928 0 1.248-0.888 1.928-2.192 1.928m0.377-11.627h-5.445v13.461h5.237c2.496 0 4.065-1.418 4.065-3.686 0-1.456-0.907-2.496-1.815-2.855 1.04-0.416 2.023-1.418 2.023-3.12 0-2.476-1.683-3.8-4.065-3.8" fill="#fff"/></g><g transform="translate(306.08 16.751)"><path d="m0 0v13.461h2.042v-11.627h6.485v-1.834z" fill="#fff"/></g><g transform="translate(316.93 16.751)"><path d="m0 0v13.461h8.603v-1.834h-6.561v-3.933h5.597v-1.814h-5.597v-4.046h6.561v-1.834z" fill="#fff"/></g><g transform="translate(330.12 29.677)"><path d="m0 0h-0.527v-0.943h0.527c0.304 0 0.512 0.208 0.512 0.471 0 0.264-0.208 0.472-0.512 0.472m0.512-2.639-0.64 1.24h-0.399v-1.24h-0.577v3.126h1.176c0.592 0 1.007-0.439 1.007-0.959 0-0.439-0.271-0.727-0.615-0.847l0.695-1.32zm-0.608 3.918c-1.296 0-2.319-1.039-2.319-2.358s1.023-2.359 2.319-2.359c1.295 0 2.311 1.04 2.311 2.359s-1.016 2.358-2.311 2.358m0-5.253c-1.599 0-2.894 1.295-2.894 2.895 0 1.599 1.295 2.894 2.894 2.894s2.895-1.295 2.895-2.894c0-1.6-1.296-2.895-2.895-2.895" fill="#fff"/></g></g></g></g></svg>
